<svg xmlns="http://www.w3.org/2000/svg" viewBox="0 0 763 646"><defs><style>.cls-1{fill:#af855b;}</style></defs><g id="Capa_1" data-name="Capa 1"><path class="cls-1" d="M604.3,252.11l-14.4.2c.58,5.25-11.87,16.54-12.84,22C576.47,278,603.52,253.67,604.3,252.11Z"/><path class="cls-1" d="M610.72,317.49c-9.34,10.7-18.68,22.77-33.47,22.77-8.36,0-17.7-6.81-16.34-14.21,9-4.86,31.91-14,37.36-24.13,6.22-11.67-9.54-11.86-16.15-9.92-12.53,4.41-24.93,14.87-29.4,27.08-6.65,9.21-16.71,21.18-28.19,21.18-16.34,0,7.2-30.36,6.23-40.86-1.36-15.18-20.24-11.09-29.38.78-18.49,25.1-37.55,67.51-46.9,90.28-14.39,34.05-21.59,59.35-37.94,91.65-5.44,11.47-19.26,19.65-14.2.77,17.12-68.29,80.55-180.37,90.48-196.91l4.86-7.2c1.95-2.72,9.93-16.73,2.53-16.73-3.31,0-8.95,3.3-16.34,19.65-4.4,10-10.18,22.31-16.68,36-9.29,10.66-18.61,22.61-33.33,22.61-8.36,0-17.7-6.81-16.34-14.21,9-4.86,31.91-14,37.36-24.13,6.23-11.67-9.54-11.86-16.15-9.92-13.2,4.65-26.29,16-30.08,29.06-5.3,7.45-15.92,9.73-19.34-2.4-1.75-5.06,3.7-10.9,3.7-16,0-5.44-2.53-11.86-8.37-11.86-2.14,0-8.75,0-4.67,15.17l1.37,5.45c2.53,14.79-30.55,41.64-36.58,21.79-4.29-16.73,14.4-50.78,21.21-63.82,1-1.94,2.72-4.09,24.12-22.38,17.71-14.2,31.52-28,40.86-40.27,6.62-8.95,16-36.58.39-36.78-17.71-.19-37.16,33.86-45.14,46.51C369.86,242,361.1,262.62,345.73,293l-9,20a45.69,45.69,0,0,0-2.28,7.11c-8.61,9.95-17.6,20.13-31.18,20.13-8.37,0-17.71-6.81-16.35-14.21,8.95-4.86,31.91-14,37.36-24.13,6.23-11.67-9.53-11.86-16.15-9.92-12.53,4.41-24.92,14.87-29.4,27.08-6.64,9.21-16.71,21.18-28.18,21.18-16.35,0,7.2-30.36,6.22-40.86-1.36-15.18-20.23-11.09-29.38.78-18.48,25.1-37.55,67.51-46.89,90.28-14.4,34.05-21.6,59.35-37.94,91.65-5.45,11.47-19.27,19.65-14.21.77C145.52,414.59,209,302.51,218.88,286l4.87-7.2c1.94-2.72,9.92-16.73,2.52-16.73-3.3,0-9,3.3-16.34,19.65C181.91,345.32,98.05,503.12,128.6,501c16.73-1.17,42.8-72,51.17-94.37,9.53-27.83,27-73.36,49.62-102.74,4.86-6.42,21.79-11.87,17.9,1.36-3.5,10.7-13.43,24.33-12.06,31.91,5.18,17.05,27.29,5.67,41.93-10.95a24.55,24.55,0,0,0,.67,8.62c1.94,7.2,7.59,10.7,17.31,10.7,15.78,0,27.85-9.21,38.59-20.17-.64,11.31,6.21,17.81,16.09,20.17,15.17,3.7,28.6-11.09,35-23.93,8.93,10.55,16.33,9.07,23,3.13a24.72,24.72,0,0,0,.54,10.1c1.94,7.2,7.58,10.7,17.31,10.7,15.08,0,26.76-8.42,37.15-18.73-34.9,73.07-85,175.93-60.31,174.2,16.74-1.17,42.81-72,51.18-94.37,9.53-27.83,27-73.36,49.62-102.74,4.86-6.42,21.79-11.87,17.89,1.36-3.5,10.7-13.42,24.33-12.06,31.91,5.18,17.05,27.3,5.67,41.94-10.95a24.54,24.54,0,0,0,.66,8.62c2,7.2,7.59,10.7,17.32,10.7,19.46,0,33.27-14,45.92-28Zm-47.48.58c2.92-8,10.32-16.53,18.1-20.23,11.09-5.25,14,4.48,5.25,11.48-4.09,3.31-14.2,6.81-24.52,12.06Zm-143.39,0c2.92-8,10.32-16.53,18.1-20.23,11.09-5.25,14,4.48,5.26,11.48-4.09,3.31-14.21,6.81-24.52,12.06Zm-7-132.69c4.08-7.21,18.48-17.71,21.21-5.84,7.78,26.85-50.79,69.07-66.55,82.11ZM289.31,318.07c2.92-8,10.31-16.53,18.09-20.23,11.09-5.25,14,4.48,5.26,11.48-4.09,3.31-14.21,6.81-24.52,12.06Z"/><path class="cls-1" d="M215.87,427.67a10.39,10.39,0,0,0,3.94-4.21,12.89,12.89,0,0,0,1.41-6.06v-3.49a12.66,12.66,0,0,0-1.47-6,10.44,10.44,0,0,0-4-4.14,10.93,10.93,0,0,0-5.65-1.48h-7.44V429.2h7.53A10.94,10.94,0,0,0,215.87,427.67Zm-12.2.54v-24.9h6.6a9.86,9.86,0,0,1,5.09,1.43,9.57,9.57,0,0,1,3.58,3.85,11.59,11.59,0,0,1,1.29,5.47v3.45A11.68,11.68,0,0,1,218.9,423a9.69,9.69,0,0,1-3.64,3.84,9.82,9.82,0,0,1-5.14,1.38Z"/><rect class="cls-1" x="228.17" y="402.31" width="1" height="26.9"/><path class="cls-1" d="M254.42,422.72a6,6,0,0,0-2.59-5.1,19.3,19.3,0,0,0-6.41-2.63,18.13,18.13,0,0,1-6.28-2.61,4.82,4.82,0,0,1,.29-7.87,9.59,9.59,0,0,1,5.73-1.57,8.34,8.34,0,0,1,5.75,2,6.35,6.35,0,0,1,2.21,5h1a7.73,7.73,0,0,0-1.12-4.11,7.56,7.56,0,0,0-3.19-2.82,10.32,10.32,0,0,0-4.65-1,10.61,10.61,0,0,0-6.44,1.82,5.64,5.64,0,0,0-2.48,4.75,5.77,5.77,0,0,0,.81,3.14,6.87,6.87,0,0,0,2.56,2.28,24.8,24.8,0,0,0,5.24,1.94,27.16,27.16,0,0,1,5.22,1.87,6.8,6.8,0,0,1,2.53,2.11,5.11,5.11,0,0,1,.8,2.91,4.93,4.93,0,0,1-2.29,4.2,9.83,9.83,0,0,1-5.82,1.62,10.57,10.57,0,0,1-6.44-1.83,6,6,0,0,1-2.48-5.14h-1a7.54,7.54,0,0,0,1.17,4.23,7.41,7.41,0,0,0,3.51,2.76,13.45,13.45,0,0,0,5.24,1,12.46,12.46,0,0,0,4.73-.85,7.19,7.19,0,0,0,3.25-2.41A5.88,5.88,0,0,0,254.42,422.72Z"/><polygon class="cls-1" points="259.66 429.2 276.03 429.2 276.03 428.21 260.66 428.21 260.66 415.87 274.15 415.87 274.15 414.87 260.66 414.87 260.66 403.31 276.03 403.31 276.03 402.31 259.66 402.31 259.66 429.2"/><polygon class="cls-1" points="300.58 429.2 300.58 402.31 299.58 402.31 299.58 427.45 282.22 402.31 281.2 402.31 281.2 429.2 282.22 429.2 282.22 404.01 299.58 429.2 300.58 429.2"/><path class="cls-1" d="M286.79,397.6a2.15,2.15,0,0,1,1.64-.63,3.91,3.91,0,0,1,2.47,1.15,4.27,4.27,0,0,0,2.83,1.16,3.12,3.12,0,0,0,2.32-1,3.42,3.42,0,0,0,.93-2.48h-1a2.48,2.48,0,0,1-.62,1.77,2.08,2.08,0,0,1-1.61.67,4.1,4.1,0,0,1-2.47-1.15,4.43,4.43,0,0,0-2.83-1.16,3.17,3.17,0,0,0-3.26,3.31h1A2.33,2.33,0,0,1,286.79,397.6Z"/><path class="cls-1" d="M325.76,407.58a9.58,9.58,0,0,0-3.58-4.17,10.36,10.36,0,0,0-10.64,0,9.57,9.57,0,0,0-3.56,4.16,14.59,14.59,0,0,0-1.25,6.17v3.88c0,3.66.94,6.56,2.81,8.72a9.25,9.25,0,0,0,7.35,3.23,9.76,9.76,0,0,0,5.32-1.46,9.63,9.63,0,0,0,3.56-4.16,14.54,14.54,0,0,0,1.24-6.18v-4A14.61,14.61,0,0,0,325.76,407.58Zm.26,10q0,5.08-2.46,8a8.24,8.24,0,0,1-6.67,2.94,8.8,8.8,0,0,1-4.84-1.33,8.6,8.6,0,0,1-3.18-3.8,13.58,13.58,0,0,1-1.12-5.68v-3.94q0-5,2.47-8a9,9,0,0,1,13.32,0,11.78,11.78,0,0,1,2.48,7.83Z"/><path class="cls-1" d="M188.36,463.41h8.22v7.84a6.75,6.75,0,0,1-3.18,1.93,15.24,15.24,0,0,1-5,.79,8.94,8.94,0,0,1-4.89-1.35,9.1,9.1,0,0,1-3.31-3.84,13,13,0,0,1-1.17-5.63v-4.29a11.28,11.28,0,0,1,2.5-7.63,8.23,8.23,0,0,1,6.55-2.9,9.13,9.13,0,0,1,5.79,1.72,7.45,7.45,0,0,1,2.67,4.93h1a8,8,0,0,0-2.93-5.59,10,10,0,0,0-6.53-2.05,9.46,9.46,0,0,0-8.77,5.48,13.41,13.41,0,0,0-1.27,5.93v4.62a13.63,13.63,0,0,0,1.35,6,9.73,9.73,0,0,0,9,5.58,16.5,16.5,0,0,0,5.61-.92,7.39,7.39,0,0,0,3.57-2.33v-9.31h-9.22Z"/><path class="cls-1" d="M220.2,460.28a7.33,7.33,0,0,0,1.71-4.82,7.12,7.12,0,0,0-2.4-5.67,9.44,9.44,0,0,0-6.43-2.09h-8.57v26.9h1V463.09h9.33L222,474.6H223v-.26l-7.18-11.51A7.23,7.23,0,0,0,220.2,460.28ZM214,462.09H205.5V448.7H213a8.7,8.7,0,0,1,5.8,1.81,6.21,6.21,0,0,1,2.11,4.95,6.41,6.41,0,0,1-1.91,4.75A6.84,6.84,0,0,1,214,462.09Z"/><path class="cls-1" d="M236.33,447.7l-10.06,26.9h1.09l3-8h13.17l3,8h1.09l-10.07-26.9Zm-5.61,17.87,6.22-16.66,6.21,16.66Z"/><polygon class="cls-1" points="240.93 440.33 239.71 440.33 236.22 445.24 237.33 445.25 240.93 440.33"/><polygon class="cls-1" points="251.94 474.6 252.94 474.6 252.94 461.37 266.72 461.37 266.72 460.34 252.94 460.34 252.94 448.7 268.6 448.7 268.6 447.7 251.94 447.7 251.94 474.6"/><rect class="cls-1" x="274.33" y="447.7" width="1" height="26.9"/><path class="cls-1" d="M285.83,451.29a7.77,7.77,0,0,1,6.33-3,8.72,8.72,0,0,1,6,1.93,8.6,8.6,0,0,1,2.59,5.65h1a9.31,9.31,0,0,0-2.88-6.36,9.71,9.71,0,0,0-6.7-2.21,9.06,9.06,0,0,0-5.11,1.47,9.47,9.47,0,0,0-3.43,4.19,15,15,0,0,0-1.2,6.14v4.16a14.73,14.73,0,0,0,1.24,6.1,9.51,9.51,0,0,0,3.42,4.12,9,9,0,0,0,5.08,1.45,9.65,9.65,0,0,0,6.72-2.23,9.37,9.37,0,0,0,2.86-6.38h-1a8.38,8.38,0,0,1-2.56,5.71,8.84,8.84,0,0,1-6,1.9,8,8,0,0,1-4.6-1.36,8.87,8.87,0,0,1-3.07-3.82,14,14,0,0,1-1.07-5.62v-4A12.14,12.14,0,0,1,285.83,451.29Z"/><path class="cls-1" d="M322.18,448.8a10.42,10.42,0,0,0-10.64,0A9.54,9.54,0,0,0,308,453a14.56,14.56,0,0,0-1.25,6.17V463c0,3.66.94,6.56,2.81,8.72a9.28,9.28,0,0,0,7.35,3.23,9.69,9.69,0,0,0,5.32-1.47,9.51,9.51,0,0,0,3.56-4.16,14.53,14.53,0,0,0,1.24-6.17v-4a14.58,14.58,0,0,0-1.25-6.16A9.55,9.55,0,0,0,322.18,448.8ZM326,463c0,3.38-.82,6.06-2.46,8a8.26,8.26,0,0,1-6.67,2.93,8.72,8.72,0,0,1-4.84-1.33,8.51,8.51,0,0,1-3.18-3.79,13.58,13.58,0,0,1-1.12-5.68v-3.94q0-5,2.47-8a9,9,0,0,1,13.32,0A11.75,11.75,0,0,1,326,459.1Z"/></g></svg>